<svg id="Layer_1" data-name="Layer 1" xmlns="http://www.w3.org/2000/svg" viewBox="0 0 1628 245.16"><defs><style>.cls-1{opacity:0.17;}.cls-2{fill:#f2f2f2;}</style></defs><title>rays</title><g class="cls-1"><polygon class="cls-2" points="544.07 242.41 547.25 243.31 553.87 245.16 558.72 245.16 547.5 243.06 544.07 242.41"/><polygon class="cls-2" points="544.14 241.99 548.04 242.52 567.15 245.16 608.91 245.16 548.37 242.19 544.14 241.99"/><polygon class="cls-2" points="544.14 241.55 549 241.56 1628 242.49 1628 146.87 549.48 241.09 544.14 241.55"/><polygon class="cls-2" points="544.09 241.12 550.28 240.28 1628 93.68 1628 0 1606.36 0 551.01 239.55 544.09 241.12"/><polygon class="cls-2" points="543.98 240.7 552.13 238.43 1409.41 0 1184.85 0 553.4 237.16 543.98 240.7"/><polygon class="cls-2" points="543.81 240.3 555.16 235.41 1100.72 0 988.56 0 557.85 232.72 543.81 240.3"/><polygon class="cls-2" points="543.59 239.92 561.4 229.16 940.74 0 871.64 0 569.84 220.73 543.59 239.92"/><polygon class="cls-2" points="543.32 239.58 583.2 207.36 839.87 0 791.61 0 761.87 28.7 543.32 239.58"/><polygon class="cls-2" points="543.33 239.04 758.38 8.88 766.68 0 731.06 0 576.32 197.03 543.33 239.04"/><polygon class="cls-2" points="542.67 239.12 561.04 212.3 706.47 0 677.23 0 552.88 220.99 542.67 239.12"/><polygon class="cls-2" points="542.29 238.91 549.43 224.65 661.99 0 636.74 0 546.83 227.42 542.29 238.91"/><polygon class="cls-2" points="541.88 238.76 545.13 229.23 623.24 0 600.41 0 543.9 230.54 541.88 238.76"/><polygon class="cls-2" points="541.46 238.67 542.81 231.69 587.93 0 566.44 0 542.1 232.45 541.46 238.67"/><polygon class="cls-2" points="541.02 238.63 541.33 233.28 554.46 0 533.45 0 540.87 233.76 541.02 238.63"/><polygon class="cls-2" points="540.59 238.64 540.25 234.42 521.51 0 500.17 0 539.93 234.75 540.59 238.64"/><polygon class="cls-2" points="540.16 238.72 539.41 235.31 487.82 0 465.32 0 539.17 235.56 540.16 238.72"/><polygon class="cls-2" points="539.75 238.85 538.72 236.05 452.06 0 427.35 0 538.52 236.25 539.75 238.85"/><polygon class="cls-2" points="539.36 239.04 538.11 236.7 412.5 0 384.16 0 537.95 236.87 539.36 239.04"/><polygon class="cls-2" points="539 239.29 537.56 237.28 366.76 0 332.56 0 537.41 237.44 539 239.29"/><polygon class="cls-2" points="538.67 239.57 537.03 237.85 311.01 0 267.13 0 536.88 238 538.67 239.57"/><polygon class="cls-2" points="538.38 239.91 536.5 238.4 238.59 0 177.68 0 536.35 238.56 538.38 239.91"/><polygon class="cls-2" points="538.15 240.27 535.97 238.97 136.31 0 41.92 0 535.82 239.14 538.15 240.27"/><polygon class="cls-2" points="537.96 240.67 535.4 239.57 0 11.39 0 65.43 535.21 239.77 537.96 240.67"/><polygon class="cls-2" points="537.83 241.08 534.77 240.25 0 94.06 0 143.84 534.54 240.49 537.83 241.08"/><polygon class="cls-2" points="537.76 241.51 534.04 241.02 0 170.76 0 218.47 533.75 241.34 537.76 241.51"/><polygon class="cls-2" points="537.75 241.95 533.15 241.98 0 244.76 0 245.16 503.47 245.16 532.73 242.42 537.75 241.95"/><polygon class="cls-2" points="537.79 242.38 531.99 243.21 518.26 245.16 525.9 245.16 531.35 243.89 537.79 242.38"/></g></svg>